<mxfile host="app.diagrams.net" modified="2023-11-08T04:16:57.647Z" agent="Mozilla/5.0 (Macintosh; Intel Mac OS X 10_15_7) AppleWebKit/537.36 (KHTML, like Gecko) Chrome/118.0.0.0 Safari/537.36" etag="_PuSVD8ig_7EzNW9Q1Rp" version="22.0.8" type="github">
  <diagram name="Page-1" id="3bokzZT7uCwafQ7YfKig">
    <mxGraphModel dx="1687" dy="1794" grid="1" gridSize="10" guides="1" tooltips="1" connect="1" arrows="1" fold="1" page="1" pageScale="1" pageWidth="1169" pageHeight="827" math="0" shadow="0">
      <root>
        <mxCell id="0" />
        <mxCell id="1" parent="0" />
        <mxCell id="Qpnqg18ZxqCp_iBwWqdQ-3" value="&lt;font style=&quot;font-size: 20px;&quot;&gt;Input image&lt;/font&gt;" style="text;html=1;align=center;verticalAlign=middle;resizable=0;points=[];autosize=1;strokeColor=none;fillColor=none;" vertex="1" parent="1">
          <mxGeometry x="85" y="350" width="130" height="40" as="geometry" />
        </mxCell>
        <mxCell id="Qpnqg18ZxqCp_iBwWqdQ-4" value="" style="whiteSpace=wrap;html=1;aspect=fixed;fillColor=#f5f5f5;gradientColor=#b3b3b3;strokeColor=#666666;" vertex="1" parent="1">
          <mxGeometry x="340" y="169" width="80" height="80" as="geometry" />
        </mxCell>
        <mxCell id="Qpnqg18ZxqCp_iBwWqdQ-5" value="" style="whiteSpace=wrap;html=1;aspect=fixed;" vertex="1" parent="1">
          <mxGeometry x="350" y="179" width="80" height="80" as="geometry" />
        </mxCell>
        <mxCell id="Qpnqg18ZxqCp_iBwWqdQ-6" value="" style="whiteSpace=wrap;html=1;aspect=fixed;fillColor=#f5f5f5;gradientColor=#b3b3b3;strokeColor=#666666;" vertex="1" parent="1">
          <mxGeometry x="360" y="189" width="80" height="80" as="geometry" />
        </mxCell>
        <mxCell id="Qpnqg18ZxqCp_iBwWqdQ-7" value="" style="whiteSpace=wrap;html=1;aspect=fixed;" vertex="1" parent="1">
          <mxGeometry x="370" y="199" width="80" height="80" as="geometry" />
        </mxCell>
        <mxCell id="Qpnqg18ZxqCp_iBwWqdQ-8" value="" style="whiteSpace=wrap;html=1;aspect=fixed;fillColor=#f5f5f5;gradientColor=#b3b3b3;strokeColor=#666666;" vertex="1" parent="1">
          <mxGeometry x="380" y="209" width="80" height="80" as="geometry" />
        </mxCell>
        <mxCell id="Qpnqg18ZxqCp_iBwWqdQ-9" value="" style="whiteSpace=wrap;html=1;aspect=fixed;" vertex="1" parent="1">
          <mxGeometry x="390" y="219" width="80" height="80" as="geometry" />
        </mxCell>
        <mxCell id="Qpnqg18ZxqCp_iBwWqdQ-12" value="" style="whiteSpace=wrap;html=1;aspect=fixed;dashed=1;fillColor=#ffe6cc;strokeColor=#d79b00;" vertex="1" parent="1">
          <mxGeometry x="20" y="63" width="260" height="260" as="geometry" />
        </mxCell>
        <mxCell id="Qpnqg18ZxqCp_iBwWqdQ-10" value="&lt;font style=&quot;font-size: 18px;&quot;&gt;Conv2d&lt;br&gt;Padding: 2&lt;br&gt;&lt;/font&gt;" style="text;html=1;align=center;verticalAlign=middle;resizable=0;points=[];autosize=1;strokeColor=none;fillColor=none;fontSize=18;" vertex="1" parent="1">
          <mxGeometry x="375" y="313" width="110" height="60" as="geometry" />
        </mxCell>
        <mxCell id="Qpnqg18ZxqCp_iBwWqdQ-11" value="5 x 5&lt;br&gt;6&lt;br&gt;" style="text;html=1;align=center;verticalAlign=middle;resizable=0;points=[];autosize=1;strokeColor=none;fillColor=none;fontSize=18;" vertex="1" parent="1">
          <mxGeometry x="400" y="224" width="60" height="60" as="geometry" />
        </mxCell>
        <mxCell id="Qpnqg18ZxqCp_iBwWqdQ-13" value="&lt;font style=&quot;font-size: 20px;&quot;&gt;28 x 28&lt;/font&gt;" style="whiteSpace=wrap;html=1;aspect=fixed;" vertex="1" parent="1">
          <mxGeometry x="44.5" y="87.5" width="211" height="211" as="geometry" />
        </mxCell>
        <mxCell id="Qpnqg18ZxqCp_iBwWqdQ-14" value="&lt;font style=&quot;font-size: 18px;&quot;&gt;Padding: 2&lt;/font&gt;" style="text;html=1;align=center;verticalAlign=middle;resizable=0;points=[];autosize=1;strokeColor=none;fillColor=none;" vertex="1" parent="1">
          <mxGeometry x="88" y="289" width="110" height="40" as="geometry" />
        </mxCell>
        <mxCell id="Qpnqg18ZxqCp_iBwWqdQ-16" value="" style="whiteSpace=wrap;html=1;aspect=fixed;fillColor=#f5f5f5;gradientColor=#b3b3b3;strokeColor=#666666;" vertex="1" parent="1">
          <mxGeometry x="560" y="73" width="211" height="211" as="geometry" />
        </mxCell>
        <mxCell id="Qpnqg18ZxqCp_iBwWqdQ-17" value="" style="whiteSpace=wrap;html=1;aspect=fixed;" vertex="1" parent="1">
          <mxGeometry x="570" y="83" width="211" height="211" as="geometry" />
        </mxCell>
        <mxCell id="Qpnqg18ZxqCp_iBwWqdQ-18" value="" style="whiteSpace=wrap;html=1;aspect=fixed;fillColor=#f5f5f5;gradientColor=#b3b3b3;strokeColor=#666666;" vertex="1" parent="1">
          <mxGeometry x="580" y="93" width="211" height="211" as="geometry" />
        </mxCell>
        <mxCell id="Qpnqg18ZxqCp_iBwWqdQ-19" value="" style="whiteSpace=wrap;html=1;aspect=fixed;" vertex="1" parent="1">
          <mxGeometry x="590" y="103" width="211" height="211" as="geometry" />
        </mxCell>
        <mxCell id="Qpnqg18ZxqCp_iBwWqdQ-20" value="" style="whiteSpace=wrap;html=1;aspect=fixed;fillColor=#f5f5f5;gradientColor=#b3b3b3;strokeColor=#666666;" vertex="1" parent="1">
          <mxGeometry x="600" y="113" width="211" height="211" as="geometry" />
        </mxCell>
        <mxCell id="Qpnqg18ZxqCp_iBwWqdQ-21" value="&lt;font style=&quot;font-size: 18px;&quot;&gt;28 x 28&lt;br&gt;6&lt;br&gt;&lt;/font&gt;" style="whiteSpace=wrap;html=1;aspect=fixed;" vertex="1" parent="1">
          <mxGeometry x="610" y="123" width="211" height="211" as="geometry" />
        </mxCell>
        <mxCell id="Qpnqg18ZxqCp_iBwWqdQ-22" value="&lt;font style=&quot;font-size: 18px;&quot;&gt;Output&lt;/font&gt;" style="text;html=1;align=center;verticalAlign=middle;resizable=0;points=[];autosize=1;strokeColor=none;fillColor=none;" vertex="1" parent="1">
          <mxGeometry x="655.5" y="350" width="80" height="40" as="geometry" />
        </mxCell>
        <mxCell id="Qpnqg18ZxqCp_iBwWqdQ-24" value="" style="triangle;whiteSpace=wrap;html=1;fillColor=#f8cecc;gradientColor=#ea6b66;strokeColor=#b85450;" vertex="1" parent="1">
          <mxGeometry x="890" y="188.5" width="80" height="80" as="geometry" />
        </mxCell>
        <mxCell id="Qpnqg18ZxqCp_iBwWqdQ-25" value="&lt;font style=&quot;font-size: 18px;&quot;&gt;ReLU&lt;/font&gt;" style="text;html=1;align=center;verticalAlign=middle;resizable=0;points=[];autosize=1;strokeColor=none;fillColor=none;" vertex="1" parent="1">
          <mxGeometry x="884" y="209" width="70" height="40" as="geometry" />
        </mxCell>
        <mxCell id="Qpnqg18ZxqCp_iBwWqdQ-26" value="&lt;font style=&quot;font-size: 18px;&quot;&gt;2 x 2&lt;/font&gt;" style="whiteSpace=wrap;html=1;aspect=fixed;fillColor=#d5e8d4;gradientColor=#97d077;strokeColor=#82b366;" vertex="1" parent="1">
          <mxGeometry x="1045.5" y="200" width="49" height="49" as="geometry" />
        </mxCell>
        <mxCell id="Qpnqg18ZxqCp_iBwWqdQ-27" value="&lt;font style=&quot;font-size: 18px;&quot;&gt;MaxPool2d&lt;br&gt;stride: 2&lt;br&gt;&lt;/font&gt;" style="text;html=1;align=center;verticalAlign=middle;resizable=0;points=[];autosize=1;strokeColor=none;fillColor=none;" vertex="1" parent="1">
          <mxGeometry x="1015" y="329" width="110" height="60" as="geometry" />
        </mxCell>
        <mxCell id="Qpnqg18ZxqCp_iBwWqdQ-28" value="" style="whiteSpace=wrap;html=1;aspect=fixed;fillColor=#f5f5f5;gradientColor=#b3b3b3;strokeColor=#666666;" vertex="1" parent="1">
          <mxGeometry x="1200" y="134.5" width="108" height="108" as="geometry" />
        </mxCell>
        <mxCell id="Qpnqg18ZxqCp_iBwWqdQ-29" value="" style="whiteSpace=wrap;html=1;aspect=fixed;" vertex="1" parent="1">
          <mxGeometry x="1210" y="144.5" width="108" height="108" as="geometry" />
        </mxCell>
        <mxCell id="Qpnqg18ZxqCp_iBwWqdQ-30" value="" style="whiteSpace=wrap;html=1;aspect=fixed;fillColor=#f5f5f5;gradientColor=#b3b3b3;strokeColor=#666666;" vertex="1" parent="1">
          <mxGeometry x="1220" y="154.5" width="108" height="108" as="geometry" />
        </mxCell>
        <mxCell id="Qpnqg18ZxqCp_iBwWqdQ-31" value="" style="whiteSpace=wrap;html=1;aspect=fixed;" vertex="1" parent="1">
          <mxGeometry x="1230" y="164.5" width="108" height="108" as="geometry" />
        </mxCell>
        <mxCell id="Qpnqg18ZxqCp_iBwWqdQ-32" value="" style="whiteSpace=wrap;html=1;aspect=fixed;fillColor=#f5f5f5;gradientColor=#b3b3b3;strokeColor=#666666;" vertex="1" parent="1">
          <mxGeometry x="1240" y="174.5" width="108" height="108" as="geometry" />
        </mxCell>
        <mxCell id="Qpnqg18ZxqCp_iBwWqdQ-33" value="&lt;font style=&quot;font-size: 18px;&quot;&gt;14 x 14&lt;br&gt;6&lt;br&gt;&lt;/font&gt;" style="whiteSpace=wrap;html=1;aspect=fixed;" vertex="1" parent="1">
          <mxGeometry x="1250" y="184.5" width="108" height="108" as="geometry" />
        </mxCell>
        <mxCell id="Qpnqg18ZxqCp_iBwWqdQ-34" value="&lt;font style=&quot;font-size: 18px;&quot;&gt;Output&lt;/font&gt;" style="text;html=1;align=center;verticalAlign=middle;resizable=0;points=[];autosize=1;strokeColor=none;fillColor=none;" vertex="1" parent="1">
          <mxGeometry x="1254" y="339" width="80" height="40" as="geometry" />
        </mxCell>
        <mxCell id="Qpnqg18ZxqCp_iBwWqdQ-36" value="" style="whiteSpace=wrap;html=1;aspect=fixed;fillColor=#f5f5f5;gradientColor=#b3b3b3;strokeColor=#666666;" vertex="1" parent="1">
          <mxGeometry x="1430" y="77.5" width="80" height="80" as="geometry" />
        </mxCell>
        <mxCell id="Qpnqg18ZxqCp_iBwWqdQ-37" value="" style="whiteSpace=wrap;html=1;aspect=fixed;" vertex="1" parent="1">
          <mxGeometry x="1440" y="87.5" width="80" height="80" as="geometry" />
        </mxCell>
        <mxCell id="Qpnqg18ZxqCp_iBwWqdQ-38" value="" style="whiteSpace=wrap;html=1;aspect=fixed;fillColor=#f5f5f5;gradientColor=#b3b3b3;strokeColor=#666666;" vertex="1" parent="1">
          <mxGeometry x="1450" y="97.5" width="80" height="80" as="geometry" />
        </mxCell>
        <mxCell id="Qpnqg18ZxqCp_iBwWqdQ-39" value="" style="whiteSpace=wrap;html=1;aspect=fixed;" vertex="1" parent="1">
          <mxGeometry x="1460" y="107.5" width="80" height="80" as="geometry" />
        </mxCell>
        <mxCell id="Qpnqg18ZxqCp_iBwWqdQ-40" value="" style="whiteSpace=wrap;html=1;aspect=fixed;fillColor=#f5f5f5;gradientColor=#b3b3b3;strokeColor=#666666;" vertex="1" parent="1">
          <mxGeometry x="1470" y="117.5" width="80" height="80" as="geometry" />
        </mxCell>
        <mxCell id="Qpnqg18ZxqCp_iBwWqdQ-41" value="" style="whiteSpace=wrap;html=1;aspect=fixed;" vertex="1" parent="1">
          <mxGeometry x="1480" y="127.5" width="80" height="80" as="geometry" />
        </mxCell>
        <mxCell id="Qpnqg18ZxqCp_iBwWqdQ-42" value="" style="whiteSpace=wrap;html=1;aspect=fixed;fillColor=#f5f5f5;gradientColor=#b3b3b3;strokeColor=#666666;" vertex="1" parent="1">
          <mxGeometry x="1490" y="137.5" width="80" height="80" as="geometry" />
        </mxCell>
        <mxCell id="Qpnqg18ZxqCp_iBwWqdQ-43" value="" style="whiteSpace=wrap;html=1;aspect=fixed;" vertex="1" parent="1">
          <mxGeometry x="1500" y="147.5" width="80" height="80" as="geometry" />
        </mxCell>
        <mxCell id="Qpnqg18ZxqCp_iBwWqdQ-44" value="" style="whiteSpace=wrap;html=1;aspect=fixed;fillColor=#f5f5f5;gradientColor=#b3b3b3;strokeColor=#666666;" vertex="1" parent="1">
          <mxGeometry x="1510" y="157.5" width="80" height="80" as="geometry" />
        </mxCell>
        <mxCell id="Qpnqg18ZxqCp_iBwWqdQ-45" value="" style="whiteSpace=wrap;html=1;aspect=fixed;" vertex="1" parent="1">
          <mxGeometry x="1520" y="167.5" width="80" height="80" as="geometry" />
        </mxCell>
        <mxCell id="Qpnqg18ZxqCp_iBwWqdQ-46" value="" style="whiteSpace=wrap;html=1;aspect=fixed;fillColor=#f5f5f5;gradientColor=#b3b3b3;strokeColor=#666666;" vertex="1" parent="1">
          <mxGeometry x="1530" y="177.5" width="80" height="80" as="geometry" />
        </mxCell>
        <mxCell id="Qpnqg18ZxqCp_iBwWqdQ-47" value="" style="whiteSpace=wrap;html=1;aspect=fixed;" vertex="1" parent="1">
          <mxGeometry x="1540" y="187.5" width="80" height="80" as="geometry" />
        </mxCell>
        <mxCell id="Qpnqg18ZxqCp_iBwWqdQ-48" value="" style="whiteSpace=wrap;html=1;aspect=fixed;fillColor=#f5f5f5;gradientColor=#b3b3b3;strokeColor=#666666;" vertex="1" parent="1">
          <mxGeometry x="1550" y="197.5" width="80" height="80" as="geometry" />
        </mxCell>
        <mxCell id="Qpnqg18ZxqCp_iBwWqdQ-49" value="" style="whiteSpace=wrap;html=1;aspect=fixed;" vertex="1" parent="1">
          <mxGeometry x="1560" y="207.5" width="80" height="80" as="geometry" />
        </mxCell>
        <mxCell id="Qpnqg18ZxqCp_iBwWqdQ-50" value="" style="whiteSpace=wrap;html=1;aspect=fixed;fillColor=#f5f5f5;gradientColor=#b3b3b3;strokeColor=#666666;" vertex="1" parent="1">
          <mxGeometry x="1570" y="217.5" width="80" height="80" as="geometry" />
        </mxCell>
        <mxCell id="Qpnqg18ZxqCp_iBwWqdQ-51" value="&lt;font style=&quot;font-size: 18px;&quot;&gt;5 x 5&lt;br&gt;16&lt;/font&gt;" style="whiteSpace=wrap;html=1;aspect=fixed;" vertex="1" parent="1">
          <mxGeometry x="1580" y="227.5" width="80" height="80" as="geometry" />
        </mxCell>
        <mxCell id="Qpnqg18ZxqCp_iBwWqdQ-52" value="&lt;font style=&quot;font-size: 18px;&quot;&gt;Conv2d&lt;br&gt;Padding: 0&lt;br&gt;&lt;/font&gt;" style="text;html=1;align=center;verticalAlign=middle;resizable=0;points=[];autosize=1;strokeColor=none;fillColor=none;fontSize=18;" vertex="1" parent="1">
          <mxGeometry x="1565" y="323" width="110" height="60" as="geometry" />
        </mxCell>
        <mxCell id="Qpnqg18ZxqCp_iBwWqdQ-53" value="" style="whiteSpace=wrap;html=1;aspect=fixed;fillColor=#f5f5f5;gradientColor=#b3b3b3;strokeColor=#666666;" vertex="1" parent="1">
          <mxGeometry x="1730" y="60" width="107.5" height="107.5" as="geometry" />
        </mxCell>
        <mxCell id="Qpnqg18ZxqCp_iBwWqdQ-54" value="" style="whiteSpace=wrap;html=1;aspect=fixed;" vertex="1" parent="1">
          <mxGeometry x="1740" y="70" width="107.5" height="107.5" as="geometry" />
        </mxCell>
        <mxCell id="Qpnqg18ZxqCp_iBwWqdQ-55" value="" style="whiteSpace=wrap;html=1;aspect=fixed;fillColor=#f5f5f5;gradientColor=#b3b3b3;strokeColor=#666666;" vertex="1" parent="1">
          <mxGeometry x="1750" y="80" width="107.5" height="107.5" as="geometry" />
        </mxCell>
        <mxCell id="Qpnqg18ZxqCp_iBwWqdQ-56" value="" style="whiteSpace=wrap;html=1;aspect=fixed;" vertex="1" parent="1">
          <mxGeometry x="1760" y="90" width="107.5" height="107.5" as="geometry" />
        </mxCell>
        <mxCell id="Qpnqg18ZxqCp_iBwWqdQ-57" value="" style="whiteSpace=wrap;html=1;aspect=fixed;fillColor=#f5f5f5;gradientColor=#b3b3b3;strokeColor=#666666;" vertex="1" parent="1">
          <mxGeometry x="1770" y="100" width="107.5" height="107.5" as="geometry" />
        </mxCell>
        <mxCell id="Qpnqg18ZxqCp_iBwWqdQ-58" value="" style="whiteSpace=wrap;html=1;aspect=fixed;" vertex="1" parent="1">
          <mxGeometry x="1780" y="110" width="107.5" height="107.5" as="geometry" />
        </mxCell>
        <mxCell id="Qpnqg18ZxqCp_iBwWqdQ-59" value="" style="whiteSpace=wrap;html=1;aspect=fixed;fillColor=#f5f5f5;gradientColor=#b3b3b3;strokeColor=#666666;" vertex="1" parent="1">
          <mxGeometry x="1790" y="120" width="107.5" height="107.5" as="geometry" />
        </mxCell>
        <mxCell id="Qpnqg18ZxqCp_iBwWqdQ-60" value="" style="whiteSpace=wrap;html=1;aspect=fixed;" vertex="1" parent="1">
          <mxGeometry x="1800" y="130" width="107.5" height="107.5" as="geometry" />
        </mxCell>
        <mxCell id="Qpnqg18ZxqCp_iBwWqdQ-61" value="" style="whiteSpace=wrap;html=1;aspect=fixed;fillColor=#f5f5f5;gradientColor=#b3b3b3;strokeColor=#666666;" vertex="1" parent="1">
          <mxGeometry x="1810" y="140" width="107.5" height="107.5" as="geometry" />
        </mxCell>
        <mxCell id="Qpnqg18ZxqCp_iBwWqdQ-62" value="" style="whiteSpace=wrap;html=1;aspect=fixed;" vertex="1" parent="1">
          <mxGeometry x="1820" y="150" width="107.5" height="107.5" as="geometry" />
        </mxCell>
        <mxCell id="Qpnqg18ZxqCp_iBwWqdQ-63" value="" style="whiteSpace=wrap;html=1;aspect=fixed;fillColor=#f5f5f5;gradientColor=#b3b3b3;strokeColor=#666666;" vertex="1" parent="1">
          <mxGeometry x="1830" y="160" width="107.5" height="107.5" as="geometry" />
        </mxCell>
        <mxCell id="Qpnqg18ZxqCp_iBwWqdQ-64" value="" style="whiteSpace=wrap;html=1;aspect=fixed;" vertex="1" parent="1">
          <mxGeometry x="1840" y="170" width="107.5" height="107.5" as="geometry" />
        </mxCell>
        <mxCell id="Qpnqg18ZxqCp_iBwWqdQ-65" value="" style="whiteSpace=wrap;html=1;aspect=fixed;fillColor=#f5f5f5;gradientColor=#b3b3b3;strokeColor=#666666;" vertex="1" parent="1">
          <mxGeometry x="1850" y="180" width="107.5" height="107.5" as="geometry" />
        </mxCell>
        <mxCell id="Qpnqg18ZxqCp_iBwWqdQ-66" value="" style="whiteSpace=wrap;html=1;aspect=fixed;" vertex="1" parent="1">
          <mxGeometry x="1860" y="190" width="107.5" height="107.5" as="geometry" />
        </mxCell>
        <mxCell id="Qpnqg18ZxqCp_iBwWqdQ-67" value="" style="whiteSpace=wrap;html=1;aspect=fixed;fillColor=#f5f5f5;gradientColor=#b3b3b3;strokeColor=#666666;" vertex="1" parent="1">
          <mxGeometry x="1870" y="200" width="107.5" height="107.5" as="geometry" />
        </mxCell>
        <mxCell id="Qpnqg18ZxqCp_iBwWqdQ-68" value="&lt;font style=&quot;font-size: 18px;&quot;&gt;10 x 10&lt;br&gt;16&lt;/font&gt;" style="whiteSpace=wrap;html=1;aspect=fixed;" vertex="1" parent="1">
          <mxGeometry x="1880" y="210" width="107.5" height="107.5" as="geometry" />
        </mxCell>
        <mxCell id="Qpnqg18ZxqCp_iBwWqdQ-69" value="&lt;font style=&quot;font-size: 18px;&quot;&gt;Output&lt;/font&gt;" style="text;html=1;align=center;verticalAlign=middle;resizable=0;points=[];autosize=1;strokeColor=none;fillColor=none;" vertex="1" parent="1">
          <mxGeometry x="1893.75" y="339" width="80" height="40" as="geometry" />
        </mxCell>
        <mxCell id="Qpnqg18ZxqCp_iBwWqdQ-70" value="&lt;font style=&quot;font-size: 18px;&quot;&gt;Output dimension: Prev width - conv width + 2 x Padding + 1&lt;/font&gt;" style="text;html=1;align=center;verticalAlign=middle;resizable=0;points=[];autosize=1;strokeColor=none;fillColor=none;" vertex="1" parent="1">
          <mxGeometry x="455" y="-7" width="510" height="40" as="geometry" />
        </mxCell>
        <mxCell id="Qpnqg18ZxqCp_iBwWqdQ-71" value="&lt;font style=&quot;font-size: 18px;&quot;&gt;after first conv2d, the output dimension: 28 - 5 + 2 x 2 +1 = 28&lt;/font&gt;" style="text;html=1;align=center;verticalAlign=middle;resizable=0;points=[];autosize=1;strokeColor=none;fillColor=none;" vertex="1" parent="1">
          <mxGeometry x="480" y="413" width="520" height="40" as="geometry" />
        </mxCell>
        <mxCell id="Qpnqg18ZxqCp_iBwWqdQ-72" value="&lt;font style=&quot;font-size: 18px;&quot;&gt;after second conv2d, the output dimension: 14 - 5 + 2 x 0 +1 = 10&lt;/font&gt;" style="text;html=1;align=center;verticalAlign=middle;resizable=0;points=[];autosize=1;strokeColor=none;fillColor=none;" vertex="1" parent="1">
          <mxGeometry x="1640" y="443" width="540" height="40" as="geometry" />
        </mxCell>
        <mxCell id="Qpnqg18ZxqCp_iBwWqdQ-73" value="" style="triangle;whiteSpace=wrap;html=1;fillColor=#f8cecc;gradientColor=#ea6b66;strokeColor=#b85450;" vertex="1" parent="1">
          <mxGeometry x="2060" y="198.5" width="80" height="80" as="geometry" />
        </mxCell>
        <mxCell id="Qpnqg18ZxqCp_iBwWqdQ-74" value="&lt;font style=&quot;font-size: 18px;&quot;&gt;ReLU&lt;/font&gt;" style="text;html=1;align=center;verticalAlign=middle;resizable=0;points=[];autosize=1;strokeColor=none;fillColor=none;" vertex="1" parent="1">
          <mxGeometry x="2054" y="219" width="70" height="40" as="geometry" />
        </mxCell>
        <mxCell id="Qpnqg18ZxqCp_iBwWqdQ-75" value="&lt;font style=&quot;font-size: 18px;&quot;&gt;2 x 2&lt;/font&gt;" style="whiteSpace=wrap;html=1;aspect=fixed;fillColor=#d5e8d4;gradientColor=#97d077;strokeColor=#82b366;" vertex="1" parent="1">
          <mxGeometry x="2215.5" y="210" width="49" height="49" as="geometry" />
        </mxCell>
        <mxCell id="Qpnqg18ZxqCp_iBwWqdQ-76" value="&lt;font style=&quot;font-size: 18px;&quot;&gt;MaxPool2d&lt;br&gt;stride: 2&lt;br&gt;&lt;/font&gt;" style="text;html=1;align=center;verticalAlign=middle;resizable=0;points=[];autosize=1;strokeColor=none;fillColor=none;" vertex="1" parent="1">
          <mxGeometry x="2185" y="339" width="110" height="60" as="geometry" />
        </mxCell>
        <mxCell id="Qpnqg18ZxqCp_iBwWqdQ-77" value="" style="whiteSpace=wrap;html=1;aspect=fixed;fillColor=#f5f5f5;gradientColor=#b3b3b3;strokeColor=#666666;" vertex="1" parent="1">
          <mxGeometry x="2320" y="70" width="107.5" height="107.5" as="geometry" />
        </mxCell>
        <mxCell id="Qpnqg18ZxqCp_iBwWqdQ-78" value="" style="whiteSpace=wrap;html=1;aspect=fixed;" vertex="1" parent="1">
          <mxGeometry x="2330" y="80" width="107.5" height="107.5" as="geometry" />
        </mxCell>
        <mxCell id="Qpnqg18ZxqCp_iBwWqdQ-79" value="" style="whiteSpace=wrap;html=1;aspect=fixed;fillColor=#f5f5f5;gradientColor=#b3b3b3;strokeColor=#666666;" vertex="1" parent="1">
          <mxGeometry x="2340" y="90" width="107.5" height="107.5" as="geometry" />
        </mxCell>
        <mxCell id="Qpnqg18ZxqCp_iBwWqdQ-80" value="" style="whiteSpace=wrap;html=1;aspect=fixed;" vertex="1" parent="1">
          <mxGeometry x="2350" y="100" width="107.5" height="107.5" as="geometry" />
        </mxCell>
        <mxCell id="Qpnqg18ZxqCp_iBwWqdQ-81" value="" style="whiteSpace=wrap;html=1;aspect=fixed;fillColor=#f5f5f5;gradientColor=#b3b3b3;strokeColor=#666666;" vertex="1" parent="1">
          <mxGeometry x="2360" y="110" width="107.5" height="107.5" as="geometry" />
        </mxCell>
        <mxCell id="Qpnqg18ZxqCp_iBwWqdQ-82" value="" style="whiteSpace=wrap;html=1;aspect=fixed;" vertex="1" parent="1">
          <mxGeometry x="2370" y="120" width="107.5" height="107.5" as="geometry" />
        </mxCell>
        <mxCell id="Qpnqg18ZxqCp_iBwWqdQ-83" value="" style="whiteSpace=wrap;html=1;aspect=fixed;fillColor=#f5f5f5;gradientColor=#b3b3b3;strokeColor=#666666;" vertex="1" parent="1">
          <mxGeometry x="2380" y="130" width="107.5" height="107.5" as="geometry" />
        </mxCell>
        <mxCell id="Qpnqg18ZxqCp_iBwWqdQ-84" value="" style="whiteSpace=wrap;html=1;aspect=fixed;" vertex="1" parent="1">
          <mxGeometry x="2390" y="140" width="107.5" height="107.5" as="geometry" />
        </mxCell>
        <mxCell id="Qpnqg18ZxqCp_iBwWqdQ-85" value="" style="whiteSpace=wrap;html=1;aspect=fixed;fillColor=#f5f5f5;gradientColor=#b3b3b3;strokeColor=#666666;" vertex="1" parent="1">
          <mxGeometry x="2400" y="150" width="107.5" height="107.5" as="geometry" />
        </mxCell>
        <mxCell id="Qpnqg18ZxqCp_iBwWqdQ-86" value="" style="whiteSpace=wrap;html=1;aspect=fixed;" vertex="1" parent="1">
          <mxGeometry x="2410" y="160" width="107.5" height="107.5" as="geometry" />
        </mxCell>
        <mxCell id="Qpnqg18ZxqCp_iBwWqdQ-87" value="" style="whiteSpace=wrap;html=1;aspect=fixed;fillColor=#f5f5f5;gradientColor=#b3b3b3;strokeColor=#666666;" vertex="1" parent="1">
          <mxGeometry x="2420" y="170" width="107.5" height="107.5" as="geometry" />
        </mxCell>
        <mxCell id="Qpnqg18ZxqCp_iBwWqdQ-88" value="" style="whiteSpace=wrap;html=1;aspect=fixed;" vertex="1" parent="1">
          <mxGeometry x="2430" y="180" width="107.5" height="107.5" as="geometry" />
        </mxCell>
        <mxCell id="Qpnqg18ZxqCp_iBwWqdQ-89" value="" style="whiteSpace=wrap;html=1;aspect=fixed;fillColor=#f5f5f5;gradientColor=#b3b3b3;strokeColor=#666666;" vertex="1" parent="1">
          <mxGeometry x="2440" y="190" width="107.5" height="107.5" as="geometry" />
        </mxCell>
        <mxCell id="Qpnqg18ZxqCp_iBwWqdQ-90" value="" style="whiteSpace=wrap;html=1;aspect=fixed;" vertex="1" parent="1">
          <mxGeometry x="2450" y="200" width="107.5" height="107.5" as="geometry" />
        </mxCell>
        <mxCell id="Qpnqg18ZxqCp_iBwWqdQ-91" value="" style="whiteSpace=wrap;html=1;aspect=fixed;fillColor=#f5f5f5;gradientColor=#b3b3b3;strokeColor=#666666;" vertex="1" parent="1">
          <mxGeometry x="2460" y="210" width="107.5" height="107.5" as="geometry" />
        </mxCell>
        <mxCell id="Qpnqg18ZxqCp_iBwWqdQ-92" value="&lt;font style=&quot;font-size: 18px;&quot;&gt;10 x 10&lt;br&gt;16&lt;/font&gt;" style="whiteSpace=wrap;html=1;aspect=fixed;" vertex="1" parent="1">
          <mxGeometry x="2470" y="220" width="107.5" height="107.5" as="geometry" />
        </mxCell>
        <mxCell id="Qpnqg18ZxqCp_iBwWqdQ-93" value="&lt;font style=&quot;font-size: 18px;&quot;&gt;Output&lt;/font&gt;" style="text;html=1;align=center;verticalAlign=middle;resizable=0;points=[];autosize=1;strokeColor=none;fillColor=none;" vertex="1" parent="1">
          <mxGeometry x="2483.75" y="349" width="80" height="40" as="geometry" />
        </mxCell>
        <mxCell id="Qpnqg18ZxqCp_iBwWqdQ-95" value="" style="rounded=0;whiteSpace=wrap;html=1;direction=south;rotation=55;fillStyle=dots;fillColor=#647687;fontColor=#ffffff;strokeColor=#314354;strokeWidth=2;" vertex="1" parent="1">
          <mxGeometry x="2417.05" y="171.07" width="550" height="25" as="geometry" />
        </mxCell>
        <mxCell id="Qpnqg18ZxqCp_iBwWqdQ-96" value="&lt;font style=&quot;font-size: 18px;&quot;&gt;Flatten&lt;br&gt;1 x 400&lt;br&gt;&lt;/font&gt;" style="text;html=1;align=center;verticalAlign=middle;resizable=0;points=[];autosize=1;strokeColor=none;fillColor=none;" vertex="1" parent="1">
          <mxGeometry x="2810" y="430" width="80" height="60" as="geometry" />
        </mxCell>
        <mxCell id="Qpnqg18ZxqCp_iBwWqdQ-97" value="" style="ellipse;whiteSpace=wrap;html=1;aspect=fixed;" vertex="1" parent="1">
          <mxGeometry x="2965" y="-130" width="30" height="30" as="geometry" />
        </mxCell>
        <mxCell id="Qpnqg18ZxqCp_iBwWqdQ-98" value="" style="ellipse;whiteSpace=wrap;html=1;aspect=fixed;" vertex="1" parent="1">
          <mxGeometry x="2965" y="-90" width="30" height="30" as="geometry" />
        </mxCell>
        <mxCell id="Qpnqg18ZxqCp_iBwWqdQ-99" value="" style="ellipse;whiteSpace=wrap;html=1;aspect=fixed;" vertex="1" parent="1">
          <mxGeometry x="2965" y="-50" width="30" height="30" as="geometry" />
        </mxCell>
        <mxCell id="Qpnqg18ZxqCp_iBwWqdQ-100" value="" style="ellipse;whiteSpace=wrap;html=1;aspect=fixed;" vertex="1" parent="1">
          <mxGeometry x="2965" y="-10" width="30" height="30" as="geometry" />
        </mxCell>
        <mxCell id="Qpnqg18ZxqCp_iBwWqdQ-101" value="" style="ellipse;whiteSpace=wrap;html=1;aspect=fixed;" vertex="1" parent="1">
          <mxGeometry x="2965" y="30" width="30" height="30" as="geometry" />
        </mxCell>
        <mxCell id="Qpnqg18ZxqCp_iBwWqdQ-102" value="" style="ellipse;whiteSpace=wrap;html=1;aspect=fixed;" vertex="1" parent="1">
          <mxGeometry x="2965" y="70" width="30" height="30" as="geometry" />
        </mxCell>
        <mxCell id="Qpnqg18ZxqCp_iBwWqdQ-103" value="" style="ellipse;whiteSpace=wrap;html=1;aspect=fixed;" vertex="1" parent="1">
          <mxGeometry x="2965" y="270" width="30" height="30" as="geometry" />
        </mxCell>
        <mxCell id="Qpnqg18ZxqCp_iBwWqdQ-104" value="" style="ellipse;whiteSpace=wrap;html=1;aspect=fixed;" vertex="1" parent="1">
          <mxGeometry x="2965" y="310" width="30" height="30" as="geometry" />
        </mxCell>
        <mxCell id="Qpnqg18ZxqCp_iBwWqdQ-105" value="" style="ellipse;whiteSpace=wrap;html=1;aspect=fixed;" vertex="1" parent="1">
          <mxGeometry x="2965" y="350" width="30" height="30" as="geometry" />
        </mxCell>
        <mxCell id="Qpnqg18ZxqCp_iBwWqdQ-106" value="" style="ellipse;whiteSpace=wrap;html=1;aspect=fixed;" vertex="1" parent="1">
          <mxGeometry x="2965" y="390" width="30" height="30" as="geometry" />
        </mxCell>
        <mxCell id="Qpnqg18ZxqCp_iBwWqdQ-107" value="" style="ellipse;whiteSpace=wrap;html=1;aspect=fixed;" vertex="1" parent="1">
          <mxGeometry x="2965" y="430" width="30" height="30" as="geometry" />
        </mxCell>
        <mxCell id="Qpnqg18ZxqCp_iBwWqdQ-108" value="" style="ellipse;whiteSpace=wrap;html=1;aspect=fixed;" vertex="1" parent="1">
          <mxGeometry x="2965" y="470" width="30" height="30" as="geometry" />
        </mxCell>
        <mxCell id="Qpnqg18ZxqCp_iBwWqdQ-109" value="" style="ellipse;whiteSpace=wrap;html=1;aspect=fixed;" vertex="1" parent="1">
          <mxGeometry x="3155" y="4" width="30" height="30" as="geometry" />
        </mxCell>
        <mxCell id="Qpnqg18ZxqCp_iBwWqdQ-110" value="" style="ellipse;whiteSpace=wrap;html=1;aspect=fixed;" vertex="1" parent="1">
          <mxGeometry x="3155" y="44" width="30" height="30" as="geometry" />
        </mxCell>
        <mxCell id="Qpnqg18ZxqCp_iBwWqdQ-111" value="" style="ellipse;whiteSpace=wrap;html=1;aspect=fixed;" vertex="1" parent="1">
          <mxGeometry x="3155" y="84" width="30" height="30" as="geometry" />
        </mxCell>
        <mxCell id="Qpnqg18ZxqCp_iBwWqdQ-112" value="" style="ellipse;whiteSpace=wrap;html=1;aspect=fixed;" vertex="1" parent="1">
          <mxGeometry x="3155" y="124" width="30" height="30" as="geometry" />
        </mxCell>
        <mxCell id="Qpnqg18ZxqCp_iBwWqdQ-113" value="" style="ellipse;whiteSpace=wrap;html=1;aspect=fixed;" vertex="1" parent="1">
          <mxGeometry x="3155" y="244" width="30" height="30" as="geometry" />
        </mxCell>
        <mxCell id="Qpnqg18ZxqCp_iBwWqdQ-114" value="" style="ellipse;whiteSpace=wrap;html=1;aspect=fixed;" vertex="1" parent="1">
          <mxGeometry x="3155" y="284" width="30" height="30" as="geometry" />
        </mxCell>
        <mxCell id="Qpnqg18ZxqCp_iBwWqdQ-115" value="" style="ellipse;whiteSpace=wrap;html=1;aspect=fixed;" vertex="1" parent="1">
          <mxGeometry x="3155" y="324" width="30" height="30" as="geometry" />
        </mxCell>
        <mxCell id="Qpnqg18ZxqCp_iBwWqdQ-116" value="" style="ellipse;whiteSpace=wrap;html=1;aspect=fixed;" vertex="1" parent="1">
          <mxGeometry x="3155" y="364" width="30" height="30" as="geometry" />
        </mxCell>
        <mxCell id="Qpnqg18ZxqCp_iBwWqdQ-117" value="&lt;font style=&quot;font-size: 18px;&quot;&gt;0&lt;/font&gt;" style="ellipse;whiteSpace=wrap;html=1;aspect=fixed;" vertex="1" parent="1">
          <mxGeometry x="3345" y="-10" width="30" height="30" as="geometry" />
        </mxCell>
        <mxCell id="Qpnqg18ZxqCp_iBwWqdQ-118" value="&lt;font style=&quot;font-size: 18px;&quot;&gt;1&lt;/font&gt;" style="ellipse;whiteSpace=wrap;html=1;aspect=fixed;" vertex="1" parent="1">
          <mxGeometry x="3345" y="30" width="30" height="30" as="geometry" />
        </mxCell>
        <mxCell id="Qpnqg18ZxqCp_iBwWqdQ-120" value="&lt;span style=&quot;color: rgb(0, 0, 0); font-family: Helvetica; font-size: 18px; font-style: normal; font-variant-ligatures: normal; font-variant-caps: normal; font-weight: 400; letter-spacing: normal; orphans: 2; text-align: center; text-indent: 0px; text-transform: none; widows: 2; word-spacing: 0px; -webkit-text-stroke-width: 0px; background-color: rgb(251, 251, 251); text-decoration-thickness: initial; text-decoration-style: initial; text-decoration-color: initial; float: none; display: inline !important;&quot;&gt;3&lt;/span&gt;" style="ellipse;whiteSpace=wrap;html=1;aspect=fixed;" vertex="1" parent="1">
          <mxGeometry x="3345" y="110" width="30" height="30" as="geometry" />
        </mxCell>
        <mxCell id="Qpnqg18ZxqCp_iBwWqdQ-121" value="&lt;span style=&quot;color: rgb(0, 0, 0); font-family: Helvetica; font-size: 18px; font-style: normal; font-variant-ligatures: normal; font-variant-caps: normal; font-weight: 400; letter-spacing: normal; orphans: 2; text-align: center; text-indent: 0px; text-transform: none; widows: 2; word-spacing: 0px; -webkit-text-stroke-width: 0px; background-color: rgb(251, 251, 251); text-decoration-thickness: initial; text-decoration-style: initial; text-decoration-color: initial; float: none; display: inline !important;&quot;&gt;4&lt;/span&gt;" style="ellipse;whiteSpace=wrap;html=1;aspect=fixed;" vertex="1" parent="1">
          <mxGeometry x="3345" y="150" width="30" height="30" as="geometry" />
        </mxCell>
        <mxCell id="Qpnqg18ZxqCp_iBwWqdQ-123" value="" style="ellipse;whiteSpace=wrap;html=1;aspect=fixed;" vertex="1" parent="1">
          <mxGeometry x="2965" y="110" width="30" height="30" as="geometry" />
        </mxCell>
        <mxCell id="Qpnqg18ZxqCp_iBwWqdQ-124" value="" style="ellipse;whiteSpace=wrap;html=1;aspect=fixed;" vertex="1" parent="1">
          <mxGeometry x="2965" y="150" width="30" height="30" as="geometry" />
        </mxCell>
        <mxCell id="Qpnqg18ZxqCp_iBwWqdQ-125" value="" style="ellipse;whiteSpace=wrap;html=1;aspect=fixed;" vertex="1" parent="1">
          <mxGeometry x="2965" y="190" width="30" height="30" as="geometry" />
        </mxCell>
        <mxCell id="Qpnqg18ZxqCp_iBwWqdQ-126" value="" style="ellipse;whiteSpace=wrap;html=1;aspect=fixed;" vertex="1" parent="1">
          <mxGeometry x="2965" y="230" width="30" height="30" as="geometry" />
        </mxCell>
        <mxCell id="Qpnqg18ZxqCp_iBwWqdQ-128" value="" style="ellipse;whiteSpace=wrap;html=1;aspect=fixed;" vertex="1" parent="1">
          <mxGeometry x="3155" y="-36" width="30" height="30" as="geometry" />
        </mxCell>
        <mxCell id="Qpnqg18ZxqCp_iBwWqdQ-129" value="" style="ellipse;whiteSpace=wrap;html=1;aspect=fixed;" vertex="1" parent="1">
          <mxGeometry x="3155" y="-76" width="30" height="30" as="geometry" />
        </mxCell>
        <mxCell id="Qpnqg18ZxqCp_iBwWqdQ-130" value="" style="ellipse;whiteSpace=wrap;html=1;aspect=fixed;" vertex="1" parent="1">
          <mxGeometry x="3155" y="204" width="30" height="30" as="geometry" />
        </mxCell>
        <mxCell id="Qpnqg18ZxqCp_iBwWqdQ-131" value="" style="ellipse;whiteSpace=wrap;html=1;aspect=fixed;" vertex="1" parent="1">
          <mxGeometry x="3155" y="164" width="30" height="30" as="geometry" />
        </mxCell>
        <mxCell id="Qpnqg18ZxqCp_iBwWqdQ-132" value="" style="ellipse;whiteSpace=wrap;html=1;aspect=fixed;" vertex="1" parent="1">
          <mxGeometry x="3155" y="404" width="30" height="30" as="geometry" />
        </mxCell>
        <mxCell id="Qpnqg18ZxqCp_iBwWqdQ-133" value="&lt;font style=&quot;font-size: 18px;&quot;&gt;Full Connect Linear&lt;br&gt;in: 400&lt;br&gt;out: 120&lt;br&gt;&lt;/font&gt;" style="text;html=1;align=center;verticalAlign=middle;resizable=0;points=[];autosize=1;strokeColor=none;fillColor=none;" vertex="1" parent="1">
          <mxGeometry x="2890" y="513" width="180" height="80" as="geometry" />
        </mxCell>
        <mxCell id="Qpnqg18ZxqCp_iBwWqdQ-134" value="&lt;font style=&quot;font-size: 18px;&quot;&gt;Full Connect Linear&lt;br&gt;in: 120&lt;br&gt;out: 84&lt;br&gt;&lt;/font&gt;" style="text;html=1;align=center;verticalAlign=middle;resizable=0;points=[];autosize=1;strokeColor=none;fillColor=none;" vertex="1" parent="1">
          <mxGeometry x="3090" y="473" width="180" height="80" as="geometry" />
        </mxCell>
        <mxCell id="Qpnqg18ZxqCp_iBwWqdQ-135" value="&lt;span style=&quot;color: rgb(0, 0, 0); font-family: Helvetica; font-size: 18px; font-style: normal; font-variant-ligatures: normal; font-variant-caps: normal; font-weight: 400; letter-spacing: normal; orphans: 2; text-align: center; text-indent: 0px; text-transform: none; widows: 2; word-spacing: 0px; -webkit-text-stroke-width: 0px; background-color: rgb(251, 251, 251); text-decoration-thickness: initial; text-decoration-style: initial; text-decoration-color: initial; float: none; display: inline !important;&quot;&gt;5&lt;/span&gt;" style="ellipse;whiteSpace=wrap;html=1;aspect=fixed;" vertex="1" parent="1">
          <mxGeometry x="3345" y="190" width="30" height="30" as="geometry" />
        </mxCell>
        <mxCell id="Qpnqg18ZxqCp_iBwWqdQ-136" value="&lt;span style=&quot;color: rgb(0, 0, 0); font-family: Helvetica; font-size: 18px; font-style: normal; font-variant-ligatures: normal; font-variant-caps: normal; font-weight: 400; letter-spacing: normal; orphans: 2; text-align: center; text-indent: 0px; text-transform: none; widows: 2; word-spacing: 0px; -webkit-text-stroke-width: 0px; background-color: rgb(251, 251, 251); text-decoration-thickness: initial; text-decoration-style: initial; text-decoration-color: initial; float: none; display: inline !important;&quot;&gt;6&lt;/span&gt;" style="ellipse;whiteSpace=wrap;html=1;aspect=fixed;" vertex="1" parent="1">
          <mxGeometry x="3345" y="230" width="30" height="30" as="geometry" />
        </mxCell>
        <mxCell id="Qpnqg18ZxqCp_iBwWqdQ-137" value="&lt;span style=&quot;color: rgb(0, 0, 0); font-family: Helvetica; font-size: 18px; font-style: normal; font-variant-ligatures: normal; font-variant-caps: normal; font-weight: 400; letter-spacing: normal; orphans: 2; text-align: center; text-indent: 0px; text-transform: none; widows: 2; word-spacing: 0px; -webkit-text-stroke-width: 0px; background-color: rgb(251, 251, 251); text-decoration-thickness: initial; text-decoration-style: initial; text-decoration-color: initial; float: none; display: inline !important;&quot;&gt;7&lt;/span&gt;" style="ellipse;whiteSpace=wrap;html=1;aspect=fixed;" vertex="1" parent="1">
          <mxGeometry x="3345" y="270" width="30" height="30" as="geometry" />
        </mxCell>
        <mxCell id="Qpnqg18ZxqCp_iBwWqdQ-138" value="&lt;span style=&quot;color: rgb(0, 0, 0); font-family: Helvetica; font-size: 18px; font-style: normal; font-variant-ligatures: normal; font-variant-caps: normal; font-weight: 400; letter-spacing: normal; orphans: 2; text-align: center; text-indent: 0px; text-transform: none; widows: 2; word-spacing: 0px; -webkit-text-stroke-width: 0px; background-color: rgb(251, 251, 251); text-decoration-thickness: initial; text-decoration-style: initial; text-decoration-color: initial; float: none; display: inline !important;&quot;&gt;8&lt;/span&gt;" style="ellipse;whiteSpace=wrap;html=1;aspect=fixed;" vertex="1" parent="1">
          <mxGeometry x="3345" y="310" width="30" height="30" as="geometry" />
        </mxCell>
        <mxCell id="Qpnqg18ZxqCp_iBwWqdQ-139" value="&lt;span style=&quot;color: rgb(0, 0, 0); font-family: Helvetica; font-size: 18px; font-style: normal; font-variant-ligatures: normal; font-variant-caps: normal; font-weight: 400; letter-spacing: normal; orphans: 2; text-align: center; text-indent: 0px; text-transform: none; widows: 2; word-spacing: 0px; -webkit-text-stroke-width: 0px; background-color: rgb(251, 251, 251); text-decoration-thickness: initial; text-decoration-style: initial; text-decoration-color: initial; float: none; display: inline !important;&quot;&gt;9&lt;/span&gt;" style="ellipse;whiteSpace=wrap;html=1;aspect=fixed;" vertex="1" parent="1">
          <mxGeometry x="3345" y="350" width="30" height="30" as="geometry" />
        </mxCell>
        <mxCell id="Qpnqg18ZxqCp_iBwWqdQ-141" value="&lt;font style=&quot;font-size: 18px;&quot;&gt;2&lt;/font&gt;" style="ellipse;whiteSpace=wrap;html=1;aspect=fixed;" vertex="1" parent="1">
          <mxGeometry x="3345" y="70" width="30" height="30" as="geometry" />
        </mxCell>
        <mxCell id="Qpnqg18ZxqCp_iBwWqdQ-142" value="&lt;font style=&quot;font-size: 18px;&quot;&gt;Full Connect Linear&lt;br&gt;in: 84&lt;br&gt;out: 10&lt;br&gt;&lt;/font&gt;" style="text;html=1;align=center;verticalAlign=middle;resizable=0;points=[];autosize=1;strokeColor=none;fillColor=none;" vertex="1" parent="1">
          <mxGeometry x="3290" y="413" width="180" height="80" as="geometry" />
        </mxCell>
        <mxCell id="bAEIoEkL-7gUkvATW2qR-1" value="&lt;font style=&quot;font-size: 28px;&quot;&gt;Convolutional Neural Network, MNIST Dataset Process diagram&amp;nbsp;&lt;/font&gt;" style="text;html=1;align=center;verticalAlign=middle;resizable=0;points=[];autosize=1;strokeColor=none;fillColor=none;" vertex="1" parent="1">
          <mxGeometry x="125" y="-192" width="830" height="50" as="geometry" />
        </mxCell>
        <mxCell id="bAEIoEkL-7gUkvATW2qR-2" value="" style="ellipse;whiteSpace=wrap;html=1;aspect=fixed;fillColor=#f8cecc;gradientColor=#ea6b66;strokeColor=#b85450;" vertex="1" parent="1">
          <mxGeometry x="860" y="215" width="31" height="31" as="geometry" />
        </mxCell>
        <mxCell id="bAEIoEkL-7gUkvATW2qR-3" value="" style="ellipse;whiteSpace=wrap;html=1;aspect=fixed;fillColor=#f8cecc;gradientColor=#ea6b66;strokeColor=#b85450;" vertex="1" parent="1">
          <mxGeometry x="2029" y="229" width="31" height="31" as="geometry" />
        </mxCell>
        <mxCell id="bAEIoEkL-7gUkvATW2qR-4" value="" style="endArrow=none;html=1;rounded=0;" edge="1" parent="1">
          <mxGeometry width="50" height="50" relative="1" as="geometry">
            <mxPoint x="2995" y="-110" as="sourcePoint" />
            <mxPoint x="3150" y="-70" as="targetPoint" />
          </mxGeometry>
        </mxCell>
        <mxCell id="bAEIoEkL-7gUkvATW2qR-5" value="" style="endArrow=none;html=1;rounded=0;" edge="1" parent="1">
          <mxGeometry width="50" height="50" relative="1" as="geometry">
            <mxPoint x="2995" y="-70" as="sourcePoint" />
            <mxPoint x="3150" y="-30" as="targetPoint" />
          </mxGeometry>
        </mxCell>
        <mxCell id="bAEIoEkL-7gUkvATW2qR-6" value="" style="endArrow=none;html=1;rounded=0;" edge="1" parent="1">
          <mxGeometry width="50" height="50" relative="1" as="geometry">
            <mxPoint x="2995" y="485" as="sourcePoint" />
            <mxPoint x="3150" y="420" as="targetPoint" />
          </mxGeometry>
        </mxCell>
        <mxCell id="bAEIoEkL-7gUkvATW2qR-7" value="" style="endArrow=none;html=1;rounded=0;" edge="1" parent="1">
          <mxGeometry width="50" height="50" relative="1" as="geometry">
            <mxPoint x="2996" y="445" as="sourcePoint" />
            <mxPoint x="3151" y="380" as="targetPoint" />
          </mxGeometry>
        </mxCell>
        <mxCell id="bAEIoEkL-7gUkvATW2qR-8" value="" style="endArrow=none;html=1;rounded=0;" edge="1" parent="1">
          <mxGeometry width="50" height="50" relative="1" as="geometry">
            <mxPoint x="2995" y="-35" as="sourcePoint" />
            <mxPoint x="3150" y="5" as="targetPoint" />
          </mxGeometry>
        </mxCell>
        <mxCell id="bAEIoEkL-7gUkvATW2qR-9" value="" style="endArrow=none;html=1;rounded=0;" edge="1" parent="1">
          <mxGeometry width="50" height="50" relative="1" as="geometry">
            <mxPoint x="2996" y="404" as="sourcePoint" />
            <mxPoint x="3151" y="339" as="targetPoint" />
          </mxGeometry>
        </mxCell>
        <mxCell id="bAEIoEkL-7gUkvATW2qR-11" value="" style="shape=flexArrow;endArrow=classic;html=1;rounded=0;" edge="1" parent="1">
          <mxGeometry width="50" height="50" relative="1" as="geometry">
            <mxPoint x="3030" y="180" as="sourcePoint" />
            <mxPoint x="3130" y="180" as="targetPoint" />
          </mxGeometry>
        </mxCell>
        <mxCell id="bAEIoEkL-7gUkvATW2qR-13" value="" style="shape=flexArrow;endArrow=classic;html=1;rounded=0;" edge="1" parent="1">
          <mxGeometry width="50" height="50" relative="1" as="geometry">
            <mxPoint x="3220" y="180" as="sourcePoint" />
            <mxPoint x="3320" y="180" as="targetPoint" />
          </mxGeometry>
        </mxCell>
        <mxCell id="bAEIoEkL-7gUkvATW2qR-14" value="" style="endArrow=none;html=1;rounded=0;exitX=1;exitY=1;exitDx=0;exitDy=0;" edge="1" parent="1" source="Qpnqg18ZxqCp_iBwWqdQ-129">
          <mxGeometry width="50" height="50" relative="1" as="geometry">
            <mxPoint x="3185" y="-40" as="sourcePoint" />
            <mxPoint x="3340" as="targetPoint" />
          </mxGeometry>
        </mxCell>
        <mxCell id="bAEIoEkL-7gUkvATW2qR-15" value="" style="endArrow=none;html=1;rounded=0;exitX=1;exitY=1;exitDx=0;exitDy=0;" edge="1" parent="1">
          <mxGeometry width="50" height="50" relative="1" as="geometry">
            <mxPoint x="3191" y="-20" as="sourcePoint" />
            <mxPoint x="3350" y="30" as="targetPoint" />
          </mxGeometry>
        </mxCell>
        <mxCell id="bAEIoEkL-7gUkvATW2qR-16" value="" style="endArrow=none;html=1;rounded=0;" edge="1" parent="1">
          <mxGeometry width="50" height="50" relative="1" as="geometry">
            <mxPoint x="3190" y="420" as="sourcePoint" />
            <mxPoint x="3340" y="370" as="targetPoint" />
          </mxGeometry>
        </mxCell>
        <mxCell id="bAEIoEkL-7gUkvATW2qR-17" value="" style="endArrow=none;html=1;rounded=0;" edge="1" parent="1">
          <mxGeometry width="50" height="50" relative="1" as="geometry">
            <mxPoint x="3190" y="380" as="sourcePoint" />
            <mxPoint x="3340" y="330" as="targetPoint" />
          </mxGeometry>
        </mxCell>
      </root>
    </mxGraphModel>
  </diagram>
</mxfile>
